<svg width="14" height="14" viewBox="0 0 14 14" fill="none" xmlns="http://www.w3.org/2000/svg">
<path d="M9.91602 2.33333V1.16667C9.91602 0.857247 9.7931 0.560501 9.57431 0.341709C9.35551 0.122916 9.05877 0 8.74935 0L5.24935 0C4.93993 0 4.64318 0.122916 4.42439 0.341709C4.2056 0.560501 4.08268 0.857247 4.08268 1.16667V2.33333H1.16602V3.5H2.33268V12.25C2.33268 12.7141 2.51706 13.1592 2.84525 13.4874C3.17343 13.8156 3.61855 14 4.08268 14H9.91602C10.3801 14 10.8253 13.8156 11.1535 13.4874C11.4816 13.1592 11.666 12.7141 11.666 12.25V3.5H12.8327V2.33333H9.91602ZM6.41602 9.91667H5.24935V6.41667H6.41602V9.91667ZM8.74935 9.91667H7.58268V6.41667H8.74935V9.91667ZM8.74935 2.33333H5.24935V1.16667H8.74935V2.33333Z" fill="#FF5555"/>
</svg>
