<svg width="14" height="14" viewBox="0 0 14 14" fill="none" xmlns="http://www.w3.org/2000/svg">
<g clip-path="url(#clip0_15398_18956)">
<path d="M11.6369 3.22933L9.60457 1.19583C8.83282 0.424667 7.80732 0 6.71707 0H4.08332C2.47507 0 1.16666 1.30842 1.16666 2.91667V11.0833C1.16666 12.6916 2.47507 14 4.08332 14H9.91666C11.5249 14 12.8333 12.6916 12.8333 11.0833V6.11625C12.8333 5.02483 12.4081 4.0005 11.6369 3.22933ZM10.8121 4.05475C10.9976 4.23967 11.1545 4.44558 11.2817 4.66725H8.74941C8.42741 4.66725 8.16607 4.40533 8.16607 4.08392V1.55108C8.38774 1.67825 8.59366 1.83517 8.77916 2.02067L10.8115 4.05417L10.8121 4.05475ZM11.6667 11.0839C11.6667 12.0487 10.8815 12.8339 9.91666 12.8339H4.08332C3.11849 12.8339 2.33332 12.0487 2.33332 11.0839V2.91667C2.33332 1.95183 3.11849 1.16667 4.08332 1.16667H6.71707C6.81216 1.16667 6.90666 1.17133 6.99999 1.18008V4.08333C6.99999 5.04817 7.78516 5.83333 8.74999 5.83333H11.6532C11.662 5.92667 11.6667 6.02117 11.6667 6.11625V11.0839ZM9.16241 9.39517C9.39049 9.62267 9.39049 9.99192 9.16241 10.22L8.22149 11.1615C7.88491 11.4981 7.44216 11.6667 6.99999 11.6667C6.55782 11.6667 6.11507 11.4981 5.77849 11.1615L4.83757 10.22C4.60949 9.99192 4.60949 9.62267 4.83757 9.39517C5.06566 9.16708 5.43432 9.16708 5.66241 9.39517L6.41666 10.1494V7.58392C6.41666 7.26192 6.67741 7.00058 6.99999 7.00058C7.32257 7.00058 7.58332 7.26192 7.58332 7.58392V10.1494L8.33757 9.39517C8.56566 9.16708 8.93432 9.16708 9.16241 9.39517Z" fill="#FAFBFC"/>
</g>
<defs>
<clipPath id="clip0_15398_18956">
<rect width="14" height="14" fill="white"/>
</clipPath>
</defs>
</svg>
