<svg width="12" height="13" viewBox="0 0 12 13" fill="none" xmlns="http://www.w3.org/2000/svg">
<g clip-path="url(#clip0_15398_18183)">
<path d="M6.74951 9.91138H9.74951V10.6614H6.74951V9.91138ZM6.74951 8.41138H11.2495V9.16138H6.74951V8.41138ZM6.74951 6.91138H11.2495V7.66138H6.74951V6.91138Z" fill="white"/>
<path d="M7.70512 4.36763L5.99925 0.911255L4.29337 4.36763L0.479248 4.92188L3.23925 7.61251L2.5875 11.4113L5.24925 10.0121V9.16463L3.58387 10.0403L3.97837 7.73926L4.04512 7.35038L3.76275 7.07551L2.091 5.44538L4.40137 5.10976L4.79137 5.05313L4.96612 4.69951L5.99925 2.60588L7.03237 4.69951L7.20712 5.05313L7.59712 5.10976L10.3924 5.51663L10.4992 4.77376L7.70512 4.36763Z" fill="white"/>
</g>
<defs>
<clipPath id="clip0_15398_18183">
<rect width="12" height="12" fill="white" transform="translate(0 0.704102)"/>
</clipPath>
</defs>
</svg>
