<svg width="18" height="19" viewBox="0 0 18 19" fill="none" xmlns="http://www.w3.org/2000/svg">
<path d="M10.125 15.3291H14.625V16.4541H10.125V15.3291ZM10.125 13.0791H16.875V14.2041H10.125V13.0791ZM10.125 10.8291H16.875V11.9541H10.125V10.8291Z" fill="#CC952C"/>
<path d="M11.5595 7.00866L9.0007 1.8241L6.44189 7.00866L0.720703 7.84003L4.8607 11.876L3.88308 17.5741L7.8757 15.4754V14.2042L5.37764 15.5176L5.96939 12.0661L6.06952 11.4828L5.64595 11.0705L3.13833 8.62528L6.60389 8.12185L7.18889 8.03691L7.45102 7.50647L9.0007 4.36603L10.5504 7.50647L10.8125 8.03691L11.3975 8.12185L15.5904 8.73216L15.7507 7.61785L11.5595 7.00866Z" fill="#CC952C"/>
</svg>
