<svg width="12" height="12" viewBox="0 0 12 12" fill="none" xmlns="http://www.w3.org/2000/svg">
<path d="M9.33332 12H2.66666C1.95441 12 1.28476 11.7226 0.781062 11.2189C0.277385 10.7153 0 10.0456 0 9.33332V8.66662C0 8.29841 0.298461 7.99993 0.666671 7.99993C1.03488 7.99993 1.33334 8.29841 1.33334 8.66662V9.33332C1.33334 9.68946 1.47205 10.0243 1.72384 10.2761C1.9757 10.5279 2.31051 10.6667 2.66666 10.6667H9.33332C9.68944 10.6667 10.0243 10.5279 10.2761 10.2761C10.5279 10.0242 10.6667 9.68942 10.6667 9.33332V8.66662C10.6667 8.29841 10.9651 7.99993 11.3333 7.99993C11.7015 7.99993 12 8.29841 12 8.66662V9.33332C12 10.0456 11.7226 10.7152 11.2189 11.2189C10.7152 11.7226 10.0456 12 9.33332 12ZM5.99999 9.33329C5.90777 9.33329 5.81997 9.31457 5.74009 9.28073C5.66557 9.24925 5.59554 9.20351 5.53427 9.14368C5.53425 9.14366 5.53425 9.14364 5.53422 9.14364C5.53378 9.14322 5.53334 9.14277 5.5329 9.14233C5.53278 9.14224 5.53264 9.14208 5.53252 9.14196C5.53215 9.14163 5.53183 9.14128 5.53148 9.14093C5.53124 9.1407 5.53103 9.14051 5.5308 9.14026C5.53057 9.14003 5.53027 9.13972 5.53006 9.13954C5.52959 9.13907 5.52908 9.13856 5.52861 9.13809L2.86193 6.47139C2.60159 6.21105 2.60159 5.78893 2.86193 5.52857C3.12227 5.26823 3.54441 5.2682 3.80475 5.52857L5.33334 7.05716V0.666671C5.33332 0.298461 5.63178 0 5.99999 0C6.3682 0 6.66668 0.298461 6.66668 0.666671V7.05713L8.19525 5.52857C8.45556 5.26823 8.87775 5.26823 9.13807 5.52857C9.39841 5.7889 9.39841 6.21105 9.13807 6.47139L6.47139 9.13805C6.47092 9.13851 6.47041 9.13902 6.46994 9.13949C6.46969 9.13972 6.46941 9.14003 6.4692 9.14021C6.46897 9.14047 6.46876 9.14065 6.46852 9.14089C6.4682 9.14126 6.46782 9.14159 6.4675 9.14191C6.46738 9.14203 6.46722 9.14219 6.4671 9.14228C6.46668 9.14273 6.46624 9.14317 6.4658 9.14359C6.46578 9.14359 6.46578 9.14361 6.46575 9.14364C6.45842 9.15079 6.45099 9.15772 6.4434 9.16448C6.38757 9.21427 6.32539 9.25309 6.25965 9.2808C6.25942 9.2809 6.25923 9.28099 6.259 9.28108C6.25874 9.28118 6.25853 9.28132 6.25828 9.28139C6.17882 9.31485 6.09158 9.33329 5.99999 9.33329Z" fill="white"/>
</svg>
