<svg width="20" height="20" viewBox="0 0 20 20" fill="none" xmlns="http://www.w3.org/2000/svg">
<path d="M14.9987 0.832031H4.9987C3.89404 0.833354 2.835 1.27277 2.05388 2.05388C1.27277 2.835 0.833354 3.89404 0.832031 4.9987V11.6654C0.833243 12.6255 1.16544 13.5559 1.77263 14.2997C2.37982 15.0435 3.22488 15.5553 4.16536 15.7487V18.332C4.16534 18.4829 4.20628 18.6309 4.2838 18.7604C4.36133 18.8898 4.47254 18.9958 4.60556 19.0669C4.73859 19.1381 4.88844 19.1718 5.03913 19.1645C5.18982 19.1572 5.3357 19.1091 5.4612 19.0254L10.2487 15.832H14.9987C16.1034 15.8307 17.1624 15.3913 17.9435 14.6102C18.7246 13.8291 19.164 12.77 19.1654 11.6654V4.9987C19.164 3.89404 18.7246 2.835 17.9435 2.05388C17.1624 1.27277 16.1034 0.833354 14.9987 0.832031ZM13.332 10.832H6.66536C6.44435 10.832 6.23239 10.7442 6.07611 10.588C5.91983 10.4317 5.83203 10.2197 5.83203 9.9987C5.83203 9.77768 5.91983 9.56572 6.07611 9.40944C6.23239 9.25316 6.44435 9.16536 6.66536 9.16536H13.332C13.553 9.16536 13.765 9.25316 13.9213 9.40944C14.0776 9.56572 14.1654 9.77768 14.1654 9.9987C14.1654 10.2197 14.0776 10.4317 13.9213 10.588C13.765 10.7442 13.553 10.832 13.332 10.832ZM14.9987 7.4987H4.9987C4.77768 7.4987 4.56572 7.4109 4.40944 7.25462C4.25316 7.09834 4.16536 6.88638 4.16536 6.66536C4.16536 6.44435 4.25316 6.23239 4.40944 6.07611C4.56572 5.91983 4.77768 5.83203 4.9987 5.83203H14.9987C15.2197 5.83203 15.4317 5.91983 15.588 6.07611C15.7442 6.23239 15.832 6.44435 15.832 6.66536C15.832 6.88638 15.7442 7.09834 15.588 7.25462C15.4317 7.4109 15.2197 7.4987 14.9987 7.4987Z" fill="#1455AC"/>
</svg>
