<svg width="31" height="31" viewBox="0 0 31 31" fill="none" xmlns="http://www.w3.org/2000/svg">
<g clip-path="url(#clip0_15964_691)">
<path d="M30.3672 24.0645C30.3672 24.7557 29.8072 25.3145 29.1172 25.3145H25.3672V29.0645C25.3672 29.7557 24.8072 30.3145 24.1172 30.3145C23.4272 30.3145 22.8672 29.7557 22.8672 29.0645V25.3145H19.1172C18.4272 25.3145 17.8672 24.7557 17.8672 24.0645C17.8672 23.3732 18.4272 22.8145 19.1172 22.8145H22.8672V19.0645C22.8672 18.3732 23.4272 17.8145 24.1172 17.8145C24.8072 17.8145 25.3672 18.3732 25.3672 19.0645V22.8145H29.1172C29.8072 22.8145 30.3672 23.3732 30.3672 24.0645ZM20.3672 9.06445C21.0559 9.06445 21.6172 8.50445 21.6172 7.81445C21.6172 7.12445 21.0559 6.56445 20.3672 6.56445C19.6784 6.56445 19.1172 7.12445 19.1172 7.81445C19.1172 8.50445 19.6784 9.06445 20.3672 9.06445ZM6.37719 11.7532L0.367188 17.7632V6.56445C0.367188 3.1182 3.17094 0.314453 6.61719 0.314453H21.6172C25.0634 0.314453 27.8672 3.1182 27.8672 6.56445V15.3145H24.1172C22.1359 15.3145 20.5109 16.8582 20.3772 18.8057L13.3247 11.7532C11.4084 9.83695 8.29219 9.83695 6.37719 11.7532ZM16.6172 7.81445C16.6172 9.88195 18.2997 11.5645 20.3672 11.5645C22.4347 11.5645 24.1172 9.88195 24.1172 7.81445C24.1172 5.74695 22.4347 4.06445 20.3672 4.06445C18.2997 4.06445 16.6172 5.74695 16.6172 7.81445ZM15.3672 24.0645C15.3672 22.2357 16.6822 20.7095 18.4172 20.3807L11.5572 13.5207C10.6172 12.582 9.08719 12.5807 8.14469 13.5207L0.367188 21.2982V21.5645C0.367188 25.0107 3.17094 27.8145 6.61719 27.8145H15.3672V24.0645Z" fill="#1455AC"/>
</g>
<defs>
<clipPath id="clip0_15964_691">
<rect width="30" height="30" fill="white" transform="translate(0.367188 0.314453)"/>
</clipPath>
</defs>
</svg>
