<svg width="18" height="14" viewBox="0 0 18 14" fill="none" xmlns="http://www.w3.org/2000/svg">
<path d="M15.875 0.75H2.125C1.62772 0.75 1.15081 0.947544 0.799175 1.29917C0.447544 1.65081 0.25 2.12772 0.25 2.625V11.375C0.25 11.8723 0.447544 12.3492 0.799175 12.7008C1.15081 13.0525 1.62772 13.25 2.125 13.25H15.875C16.3723 13.25 16.8492 13.0525 17.2008 12.7008C17.5525 12.3492 17.75 11.8723 17.75 11.375V2.625C17.75 2.12772 17.5525 1.65081 17.2008 1.29917C16.8492 0.947544 16.3723 0.75 15.875 0.75ZM2.125 2H15.875C16.0408 2 16.1997 2.06585 16.3169 2.18306C16.4342 2.30027 16.5 2.45924 16.5 2.625V3.875H1.5V2.625C1.5 2.45924 1.56585 2.30027 1.68306 2.18306C1.80027 2.06585 1.95924 2 2.125 2ZM15.875 12H2.125C1.95924 12 1.80027 11.9342 1.68306 11.8169C1.56585 11.6997 1.5 11.5408 1.5 11.375V5.125H16.5V11.375C16.5 11.5408 16.4342 11.6997 16.3169 11.8169C16.1997 11.9342 16.0408 12 15.875 12ZM5.875 10.125C5.875 10.2908 5.80915 10.4497 5.69194 10.5669C5.57473 10.6842 5.41576 10.75 5.25 10.75H3.375C3.20924 10.75 3.05027 10.6842 2.93306 10.5669C2.81585 10.4497 2.75 10.2908 2.75 10.125C2.75 9.95924 2.81585 9.80027 2.93306 9.68306C3.05027 9.56585 3.20924 9.5 3.375 9.5H5.25C5.41576 9.5 5.57473 9.56585 5.69194 9.68306C5.80915 9.80027 5.875 9.95924 5.875 10.125Z" fill="#1455AC"/>
</svg>
