<svg width="20" height="21" viewBox="0 0 20 21" fill="none" xmlns="http://www.w3.org/2000/svg">
<g clip-path="url(#clip0_16384_517)">
<path d="M13.3335 7.16684C13.1772 7.01061 12.9653 6.92285 12.7443 6.92285C12.5233 6.92285 12.3114 7.01061 12.1551 7.16684L10.0001 9.32184L7.84512 7.16684C7.68795 7.01504 7.47745 6.93105 7.25895 6.93295C7.04046 6.93484 6.83145 7.02248 6.67694 7.17699C6.52243 7.3315 6.43479 7.54051 6.43289 7.75901C6.43099 7.9775 6.51499 8.188 6.66679 8.34517L8.82179 10.5002L6.66679 12.6552C6.51499 12.8123 6.43099 13.0228 6.43289 13.2413C6.43479 13.4598 6.52243 13.6688 6.67694 13.8234C6.83145 13.9779 7.04046 14.0655 7.25895 14.0674C7.47745 14.0693 7.68795 13.9853 7.84512 13.8335L10.0001 11.6785L12.1551 13.8335C12.3123 13.9853 12.5228 14.0693 12.7413 14.0674C12.9598 14.0655 13.1688 13.9779 13.3233 13.8234C13.4778 13.6688 13.5655 13.4598 13.5673 13.2413C13.5692 13.0228 13.4853 12.8123 13.3335 12.6552L11.1785 10.5002L13.3335 8.34517C13.4897 8.1889 13.5774 7.97698 13.5774 7.75601C13.5774 7.53504 13.4897 7.32311 13.3335 7.16684Z" fill="#A7A7A7"/>
<path d="M10 0.5C8.02219 0.5 6.08879 1.08649 4.4443 2.1853C2.79981 3.28412 1.51809 4.8459 0.761209 6.67317C0.00433286 8.50043 -0.193701 10.5111 0.192152 12.4509C0.578004 14.3907 1.53041 16.1725 2.92894 17.5711C4.32746 18.9696 6.10929 19.922 8.0491 20.3079C9.98891 20.6937 11.9996 20.4957 13.8268 19.7388C15.6541 18.9819 17.2159 17.7002 18.3147 16.0557C19.4135 14.4112 20 12.4778 20 10.5C19.9971 7.84872 18.9426 5.30684 17.0679 3.4321C15.1932 1.55736 12.6513 0.502868 10 0.5ZM10 18.8333C8.35183 18.8333 6.74066 18.3446 5.37025 17.4289C3.99984 16.5132 2.93174 15.2117 2.30101 13.689C1.67028 12.1663 1.50525 10.4908 1.82679 8.87425C2.14834 7.25774 2.94201 5.77288 4.10745 4.60744C5.27289 3.44201 6.75774 2.64833 8.37425 2.32679C9.99076 2.00525 11.6663 2.17027 13.189 2.801C14.7118 3.43173 16.0132 4.49984 16.9289 5.87025C17.8446 7.24066 18.3333 8.85182 18.3333 10.5C18.3309 12.7094 17.4522 14.8276 15.8899 16.3899C14.3276 17.9522 12.2094 18.8309 10 18.8333Z" fill="#A7A7A7"/>
</g>
<defs>
<clipPath id="clip0_16384_517">
<rect width="20" height="20" fill="white" transform="translate(0 0.5)"/>
</clipPath>
</defs>
</svg>
