<svg width="15" height="15" viewBox="0 0 15 15" fill="none" xmlns="http://www.w3.org/2000/svg">
<ellipse cx="7.55238" cy="7.4473" rx="7.44666" ry="7.44681" fill="#9EADC1"/>
<path d="M8.25753 7.44727L10.2314 5.47337C10.3251 5.37985 10.3778 5.25295 10.3779 5.12058C10.378 4.98821 10.3255 4.86122 10.232 4.76754C10.1385 4.67386 10.0116 4.62116 9.87925 4.62105C9.74688 4.62093 9.61989 4.6734 9.52621 4.76692L7.55235 6.74082L5.57848 4.76692C5.4848 4.67323 5.35775 4.62061 5.22526 4.62061C5.09278 4.62061 4.96573 4.67323 4.87205 4.76692C4.77837 4.8606 4.72574 4.98766 4.72574 5.12014C4.72574 5.25263 4.77837 5.37968 4.87205 5.47337L6.84591 7.44727L4.87205 9.42117C4.77837 9.51485 4.72574 9.64191 4.72574 9.7744C4.72574 9.90688 4.77837 10.0339 4.87205 10.1276C4.96573 10.2213 5.09278 10.2739 5.22526 10.2739C5.35775 10.2739 5.4848 10.2213 5.57848 10.1276L7.55235 8.15372L9.52621 10.1276C9.61989 10.2213 9.74695 10.2739 9.87943 10.2739C10.0119 10.2739 10.139 10.2213 10.2326 10.1276C10.3263 10.0339 10.379 9.90688 10.379 9.7744C10.379 9.64191 10.3263 9.51485 10.2326 9.42117L8.25753 7.44727Z" fill="white"/>
</svg>
