<svg width="16" height="17" viewBox="0 0 16 17" fill="none" xmlns="http://www.w3.org/2000/svg">
<g clip-path="url(#clip0_14302_49980)">
<mask id="mask0_14302_49980" style="mask-type:luminance" maskUnits="userSpaceOnUse" x="0" y="0" width="16" height="17">
<path d="M0 0.717285H16V16.7173H0V0.717285Z" fill="white"/>
</mask>
<g mask="url(#mask0_14302_49980)">
<path d="M10.7134 5.59629C11.9494 6.12845 13.1102 8.01975 13.1102 9.14243L14.8172 10.9504C15.6546 11.8374 15.6997 13.2186 14.9038 14.143C14.8805 14.1701 14.8569 14.1969 14.8329 14.2235C13.9468 15.2053 12.4272 15.2707 11.4495 14.3803L10.7828 13.7733C10.7828 13.7733 8.90058 13.9717 7.82061 12.8919C7.82061 12.8917 10.5783 5.53811 10.7134 5.59629Z" fill="#FFC67A"/>
<path d="M3.9343 2.27415L0.392663 5.81579C0.0590232 6.14945 0.0590232 6.69038 0.392663 7.02401L6.55072 13.1821C6.88435 13.5157 7.42528 13.5157 7.75891 13.1821L11.3006 9.64043C11.6342 9.3068 11.6342 8.76583 11.3006 8.4322L5.14253 2.27415C4.80886 1.94052 4.26794 1.94052 3.9343 2.27415Z" fill="#00043D"/>
<path d="M4.36422 2.70399L0.822586 6.24562C0.726384 6.34184 0.726384 6.49781 0.822586 6.594L6.98064 12.752C7.07683 12.8482 7.2328 12.8482 7.32899 12.752L10.8707 9.21042C10.9668 9.11422 10.9668 8.95822 10.8707 8.86203L4.71261 2.70399C4.61638 2.60779 4.46042 2.60779 4.36422 2.70399Z" fill="#EDF0FF"/>
<path d="M8.92272 4.52812C9.41469 4.9496 10.0943 5.44115 10.7187 5.58054L10.8302 6.88425L10.4548 7.08153C10.3384 7.14304 10.2087 7.17484 10.077 7.17417C9.94538 7.17347 9.81594 7.14032 9.70019 7.07763C9.30861 6.86508 8.70791 6.47171 8.27261 5.879C8.08243 5.62393 7.97098 5.31878 7.952 5.00118C7.92 4.49008 8.53379 4.19497 8.92272 4.52812Z" fill="#FFC67A"/>
<path d="M3.76323 8.7892L2.82149 8.97583C2.44012 9.05141 2.19222 9.42184 2.26781 9.80322L2.27832 9.85624C2.3539 10.2376 2.72434 10.4855 3.10571 10.4099L4.04746 10.2233C4.42883 10.1477 4.67674 9.77727 4.60115 9.39589L4.59062 9.34287C4.51504 8.96149 4.14461 8.71362 3.76323 8.7892Z" fill="#FFC67A"/>
<path d="M5.13984 9.92519L3.79667 10.1914C3.4153 10.267 3.16741 10.6374 3.24301 11.0188L3.2535 11.0718C3.32909 11.4532 3.69952 11.7011 4.0809 11.6255L5.42406 11.3593C5.80544 11.2837 6.05331 10.9133 5.97773 10.5319L5.96723 10.4789C5.89165 10.0975 5.52122 9.8496 5.13984 9.92519Z" fill="#FFC67A"/>
<path d="M5.25456 11.3918L4.88643 11.4648C4.50214 11.541 4.25238 11.9142 4.32854 12.2985L4.3391 12.3519C4.41526 12.7362 4.78851 12.9859 5.1728 12.9098L5.54093 12.8368C5.92518 12.7606 6.17497 12.3874 6.09881 12.0031L6.08822 11.9497C6.01206 11.5655 5.63881 11.3157 5.25456 11.3918Z" fill="#FFC67A"/>
<path d="M5.88544 6.00743C5.88135 6.08577 5.84973 6.16014 5.7962 6.21745C5.74266 6.27476 5.67063 6.3114 5.59277 6.32084C5.42263 6.34145 5.27152 6.40465 5.16836 6.50782C4.984 6.69217 4.99322 6.90411 5.14071 7.05159C5.53703 7.44791 6.5969 6.68292 7.32503 7.41105C7.78442 7.87044 7.85021 8.50391 7.50176 9.0714C7.46762 9.12561 7.44967 9.18843 7.44999 9.25246C7.45031 9.31652 7.4689 9.37915 7.50355 9.433L7.60013 9.5802C7.64221 9.64436 7.6609 9.72103 7.65306 9.79735C7.64519 9.87364 7.6113 9.94494 7.55706 9.99918C7.52218 10.0341 7.48 10.0608 7.43357 10.0774C7.38714 10.094 7.3376 10.1001 7.28852 10.0953C7.23943 10.0905 7.192 10.0749 7.1497 10.0495C7.10736 10.0242 7.07117 9.98983 7.04375 9.94884L7.04151 9.94548C6.99789 9.8811 6.93325 9.83383 6.85866 9.81179C6.78407 9.78974 6.70413 9.79428 6.63252 9.82465C6.46842 9.89239 6.29572 9.937 6.11936 9.95723C6.07264 9.96209 6.02541 9.95703 5.98077 9.94231C5.93616 9.92759 5.89517 9.90359 5.86052 9.87185C5.82583 9.84014 5.79831 9.80145 5.77968 9.75828C5.76109 9.71515 5.75184 9.66855 5.75255 9.62158L5.75476 9.4059C5.756 9.32219 5.78852 9.24199 5.84589 9.18107C5.90327 9.12014 5.98138 9.08286 6.06487 9.07662C6.27895 9.05886 6.48387 8.98939 6.63376 8.8395C6.85498 8.61828 6.86416 8.40628 6.68909 8.23118C6.24672 7.78878 5.18676 8.55377 4.49552 7.86254C4.04432 7.4115 3.9833 6.78257 4.33232 6.22958C4.36602 6.17479 4.38301 6.11137 4.38125 6.04705C4.37949 5.98276 4.35904 5.92036 4.3224 5.8675L4.236 5.74068C4.19229 5.67646 4.17236 5.59899 4.17965 5.52161C4.18695 5.44427 4.221 5.37188 4.27594 5.31694L4.27613 5.31671C4.31079 5.28209 4.35261 5.2555 4.39869 5.23886C4.44477 5.22222 4.49392 5.21591 4.54272 5.22039C4.59149 5.22491 4.63869 5.24007 4.68093 5.26487C4.7232 5.28964 4.75946 5.32343 4.7872 5.36382L4.81172 5.3995C4.85325 5.45927 4.91306 5.50391 4.98221 5.52673C5.05133 5.54951 5.12599 5.54923 5.19492 5.52587C5.30112 5.49108 5.41056 5.46711 5.5216 5.45431C5.57002 5.44846 5.61911 5.45326 5.66548 5.46836C5.71181 5.48347 5.75431 5.50849 5.78999 5.54174C5.82564 5.57499 5.8536 5.61563 5.87191 5.66081C5.89024 5.70599 5.89847 5.75463 5.896 5.80334L5.88544 6.00743Z" fill="#8CD96B"/>
<path d="M3.3353 4.0782L2.06931 5.34418C1.96732 5.44616 1.96732 5.61151 2.0693 5.71349C2.17127 5.81548 2.33662 5.81548 2.43861 5.71349L3.70458 4.44751C3.80656 4.34553 3.8066 4.18015 3.70461 4.0782C3.60263 3.97621 3.43728 3.97621 3.3353 4.0782Z" fill="#00043D"/>
<path d="M9.09558 9.83845L7.8296 11.1044C7.72762 11.2064 7.72762 11.3718 7.8296 11.4737C7.93158 11.5757 8.09693 11.5757 8.19891 11.4737L9.4649 10.2078C9.56688 10.1058 9.56688 9.9404 9.4649 9.83845C9.36291 9.73647 9.19757 9.73647 9.09558 9.83845Z" fill="#D6DCED"/>
<path d="M2.27236 5.65963C2.35473 5.65963 2.42151 5.59285 2.42151 5.51048C2.42151 5.42811 2.35473 5.36133 2.27236 5.36133C2.18998 5.36133 2.12321 5.42811 2.12321 5.51048C2.12321 5.59285 2.18998 5.65963 2.27236 5.65963Z" fill="#EDF0FF"/>
<path d="M3.52333 4.40866C3.6057 4.40866 3.67248 4.34187 3.67248 4.2595C3.67248 4.17714 3.6057 4.11035 3.52333 4.11035C3.44096 4.11035 3.37418 4.17714 3.37418 4.2595C3.37418 4.34187 3.44096 4.40866 3.52333 4.40866Z" fill="#EDF0FF"/>
</g>
</g>
<defs>
<clipPath id="clip0_14302_49980">
<rect width="16" height="16" fill="white" transform="translate(0 0.717285)"/>
</clipPath>
</defs>
</svg>
