<svg width="21" height="21" viewBox="0 0 21 21" fill="none" xmlns="http://www.w3.org/2000/svg">
<rect x="0.867188" y="0.814453" width="19" height="19" rx="4.5" fill="white"/>
<rect x="0.867188" y="0.814453" width="19" height="19" rx="4.5" stroke="#5C8FFC"/>
<g clip-path="url(#clip0_15965_1970)">
<path d="M6.75785 12.6884C6.50779 12.9384 6.36726 13.2775 6.36719 13.6311V14.3154H7.05152C7.40511 14.3153 7.7442 14.1748 7.99419 13.9247L12.4419 9.47706L11.2055 8.24072L6.75785 12.6884Z" fill="#5C8FFC"/>
<path d="M14.0816 6.59957C14.0004 6.51832 13.904 6.45386 13.7979 6.40988C13.6918 6.3659 13.5781 6.34326 13.4633 6.34326C13.3484 6.34326 13.2347 6.3659 13.1286 6.40988C13.0225 6.45386 12.9261 6.51832 12.8449 6.59957L11.6763 7.76857L12.9126 9.00491L14.0816 7.83624C14.1629 7.75507 14.2273 7.65868 14.2713 7.55258C14.3153 7.44648 14.3379 7.33276 14.3379 7.21791C14.3379 7.10305 14.3153 6.98933 14.2713 6.88323C14.2273 6.77713 14.1629 6.68074 14.0816 6.59957Z" fill="#5C8FFC"/>
</g>
<defs>
<clipPath id="clip0_15965_1970">
<rect width="8" height="8" fill="white" transform="translate(6.36719 6.31445)"/>
</clipPath>
</defs>
</svg>
