<svg width="44" height="48" viewBox="0 0 44 48" fill="none" xmlns="http://www.w3.org/2000/svg">
<path d="M24.75 28.75H19.25C17.7312 28.75 16.5 29.9812 16.5 31.5V42.5C16.5 44.0188 17.7312 45.25 19.25 45.25H24.75C26.2688 45.25 27.5 44.0188 27.5 42.5V31.5C27.5 29.9812 26.2688 28.75 24.75 28.75Z" fill="#262D34" fill-opacity="0.2"/>
<path d="M11 32.875H5.5C3.98122 32.875 2.75 34.1062 2.75 35.625V42.5C2.75 44.0188 3.98122 45.25 5.5 45.25H11C12.5188 45.25 13.75 44.0188 13.75 42.5V35.625C13.75 34.1062 12.5188 32.875 11 32.875Z" fill="#262D34" fill-opacity="0.2"/>
<path d="M38.5 21.875H33C31.4812 21.875 30.25 23.1062 30.25 24.625V42.5C30.25 44.0188 31.4812 45.25 33 45.25H38.5C40.0188 45.25 41.25 44.0188 41.25 42.5V24.625C41.25 23.1062 40.0188 21.875 38.5 21.875Z" fill="#262D34" fill-opacity="0.2"/>
<path d="M8.25 27.375C8.36453 27.3749 8.47861 27.3606 8.58962 27.3324C13.5111 26.0786 18.2464 24.1832 22.6737 21.6949C27.4935 18.9713 31.8972 15.5696 35.75 11.5941V15C35.75 15.3647 35.8949 15.7144 36.1527 15.9723C36.4106 16.2301 36.7603 16.375 37.125 16.375C37.4897 16.375 37.8394 16.2301 38.0973 15.9723C38.3551 15.7144 38.5 15.3647 38.5 15V8.125C38.5 7.76033 38.3551 7.41059 38.0973 7.15273C37.8394 6.89487 37.4897 6.75 37.125 6.75H30.25C29.8853 6.75 29.5356 6.89487 29.2777 7.15273C29.0199 7.41059 28.875 7.76033 28.875 8.125C28.875 8.48967 29.0199 8.83941 29.2777 9.09727C29.5356 9.35513 29.8853 9.5 30.25 9.5H33.9295C30.2271 13.3622 25.9814 16.664 21.3262 19.301C17.1087 21.669 12.5981 23.4719 7.91037 24.6635C7.58181 24.7428 7.29397 24.9404 7.10183 25.2184C6.90968 25.4965 6.82669 25.8356 6.8687 26.171C6.9107 26.5064 7.07477 26.8145 7.32956 27.0366C7.58435 27.2587 7.91202 27.3792 8.25 27.375Z" fill="#262D34" fill-opacity="0.2"/>
<path d="M10 0C8.02219 0 6.08879 0.58649 4.4443 1.6853C2.79981 2.78412 1.51809 4.3459 0.761209 6.17316C0.00433283 8.00042 -0.1937 10.0111 0.192152 11.9509C0.578004 13.8907 1.53041 15.6725 2.92894 17.0711C4.32746 18.4696 6.10929 19.422 8.0491 19.8078C9.98891 20.1937 11.9996 19.9957 13.8268 19.2388C15.6541 18.4819 17.2159 17.2002 18.3147 15.5557C19.4135 13.9112 20 11.9778 20 10C19.997 7.34875 18.9425 4.80694 17.0678 2.93222C15.1931 1.0575 12.6513 0.00297763 10 0ZM13.5259 11.5469C13.6565 11.6775 13.7601 11.8325 13.8308 12.0031C13.9015 12.1737 13.9378 12.3566 13.9378 12.5412C13.9378 12.7259 13.9015 12.9088 13.8308 13.0794C13.7601 13.25 13.6565 13.405 13.5259 13.5356C13.3954 13.6662 13.2403 13.7698 13.0697 13.8405C12.8991 13.9111 12.7162 13.9475 12.5316 13.9475C12.3469 13.9475 12.164 13.9111 11.9934 13.8405C11.8228 13.7698 11.6678 13.6662 11.5372 13.5356L9.99032 11.9887L8.46282 13.5162C8.19909 13.78 7.8414 13.9281 7.46844 13.9281C7.09548 13.9281 6.73779 13.78 6.47407 13.5162C6.21034 13.2525 6.06218 12.8948 6.06218 12.5219C6.06218 12.1489 6.21034 11.7912 6.47407 11.5275L8.00157 10L6.47407 8.4725C6.21034 8.20877 6.06218 7.85109 6.06218 7.47812C6.06218 7.10516 6.21034 6.74747 6.47407 6.48375C6.73779 6.22002 7.09548 6.07186 7.46844 6.07186C7.8414 6.07186 8.19909 6.22002 8.46282 6.48375L9.99032 8.01125L11.5372 6.46437C11.6678 6.33379 11.8228 6.23021 11.9934 6.15953C12.164 6.08886 12.3469 6.05249 12.5316 6.05249C12.7162 6.05249 12.8991 6.08886 13.0697 6.15953C13.2403 6.23021 13.3954 6.33379 13.5259 6.46437C13.6565 6.59495 13.7601 6.74998 13.8308 6.9206C13.9015 7.09121 13.9378 7.27407 13.9378 7.45875C13.9378 7.64342 13.9015 7.82628 13.8308 7.9969C13.7601 8.16752 13.6565 8.32254 13.5259 8.45312L11.9791 10L13.5259 11.5469Z" fill="#262D34" fill-opacity="0.2"/>
</svg>
