<svg width="15" height="15" viewBox="0 0 15 15" fill="none" xmlns="http://www.w3.org/2000/svg">
<g clip-path="url(#clip0_16441_118454)">
<path d="M13.8302 9.2576L9.1169 1.81427C8.72023 1.2426 8.06107 0.898438 7.3669 0.898438C6.67273 0.898438 6.01357 1.23677 5.5994 1.83177L0.909398 9.24594C0.314398 10.0976 0.203565 11.1184 0.617731 11.9059C1.02606 12.6934 1.88356 13.1426 2.9569 13.1426H11.7769C12.8561 13.1426 13.7077 12.6934 14.1161 11.9059C14.5244 11.1184 14.4136 10.1034 13.8302 9.2576ZM6.78357 4.39844C6.78357 4.0776 7.04606 3.8151 7.3669 3.8151C7.68773 3.8151 7.95023 4.0776 7.95023 4.39844V7.89844C7.95023 8.21927 7.68773 8.48177 7.3669 8.48177C7.04606 8.48177 6.78357 8.21927 6.78357 7.89844V4.39844ZM7.3669 11.3984C6.88273 11.3984 6.4919 11.0076 6.4919 10.5234C6.4919 10.0393 6.88273 9.64844 7.3669 9.64844C7.85107 9.64844 8.2419 10.0393 8.2419 10.5234C8.2419 11.0076 7.85107 11.3984 7.3669 11.3984Z" fill="#FF4040"/>
</g>
<defs>
<clipPath id="clip0_16441_118454">
<rect width="14" height="14" fill="white" transform="translate(0.367188 0.314453)"/>
</clipPath>
</defs>
</svg>
