<svg width="14" height="19" viewBox="0 0 14 19" fill="none" xmlns="http://www.w3.org/2000/svg">
<g clip-path="url(#clip0_16485_12714)">
<path d="M9.7904 3.75739L10.5108 2.58489C10.6788 2.30955 11.0381 2.22439 11.3129 2.39355C11.5877 2.56214 11.6734 2.92089 11.5042 3.19564L10.7838 4.36814C10.6742 4.5478 10.4822 4.64639 10.2862 4.64639C10.1818 4.64639 10.0768 4.61839 9.98173 4.56005C9.70698 4.39147 9.62123 4.03214 9.7904 3.75739ZM3.1649 4.36755C3.27457 4.54722 3.46707 4.64639 3.66307 4.64639C3.7669 4.64639 3.8719 4.61839 3.96698 4.56064C4.24173 4.39205 4.32807 4.0333 4.15948 3.75855L3.44023 2.58547C3.27165 2.31072 2.91232 2.22497 2.63815 2.39297C2.3634 2.56155 2.27707 2.9203 2.44565 3.19505L3.1649 4.36755ZM1.88973 5.65555L0.8409 5.1533C0.551567 5.01272 0.200983 5.13639 0.0633167 5.42747C-0.0761 5.71797 0.0469834 6.06622 0.337483 6.20505L1.38632 6.7073C1.4674 6.74639 1.55315 6.76505 1.63773 6.76505C1.85532 6.76505 2.06415 6.64314 2.1639 6.43372C2.30332 6.14322 2.18023 5.79439 1.88973 5.65555ZM6.91982 4.64814C3.70332 4.70122 1.15415 8.18722 2.90065 11.5449C3.16607 12.0547 3.55982 12.4817 3.98273 12.8708C4.14315 13.0184 4.2674 13.201 4.37357 13.397H6.41582V10.373C5.73857 10.1315 5.24915 9.4898 5.24915 8.7303C5.24915 8.40772 5.5099 8.14697 5.83248 8.14697C6.15507 8.14697 6.41582 8.40772 6.41582 8.7303C6.41582 9.05289 6.67715 9.31364 6.99915 9.31364C7.32115 9.31364 7.58248 9.0523 7.58248 8.7303C7.58248 8.4083 7.84323 8.14697 8.16582 8.14697C8.4884 8.14697 8.74915 8.40772 8.74915 8.7303C8.74915 9.4898 8.25973 10.1315 7.58248 10.373V13.397H9.60548C9.73848 13.1689 9.90998 12.9536 10.1346 12.7664C10.519 12.4456 10.8806 12.088 11.1029 11.6394C12.1161 9.59014 11.7142 7.40497 10.2711 5.9863C9.37215 5.10197 8.18157 4.62889 6.91982 4.64814ZM4.66115 14.7264C4.61448 15.5816 5.25498 16.3142 6.11132 16.3142H7.87357C8.67915 16.3142 9.3319 15.6615 9.3319 14.8559V14.5642H4.65473C4.65473 14.6191 4.66465 14.6704 4.66115 14.7264ZM13.9484 5.40589C13.8154 5.11247 13.4706 4.98005 13.1772 5.11422L12.0502 5.62289C11.7562 5.7553 11.6256 6.10064 11.7586 6.39405C11.856 6.60989 12.0677 6.73764 12.2906 6.73764C12.3705 6.73764 12.4522 6.7213 12.5297 6.68572L13.6567 6.17705C13.9507 6.04464 14.0814 5.6993 13.9484 5.40589Z" fill="#019463"/>
</g>
<defs>
<clipPath id="clip0_16485_12714">
<rect width="14" height="14" fill="white" transform="translate(0 2.31445)"/>
</clipPath>
</defs>
</svg>
