<svg width="14" height="14" viewBox="0 0 14 14" fill="none" xmlns="http://www.w3.org/2000/svg">
<g clip-path="url(#clip0_15814_102)">
<path d="M7 14C8.38447 14 9.73785 13.5895 10.889 12.8203C12.0401 12.0511 12.9373 10.9579 13.4672 9.67879C13.997 8.3997 14.1356 6.99224 13.8655 5.63437C13.5954 4.2765 12.9287 3.02922 11.9497 2.05026C10.9708 1.07129 9.7235 0.404603 8.36563 0.134506C7.00777 -0.13559 5.6003 0.003033 4.32122 0.532846C3.04213 1.06266 1.94888 1.95987 1.17971 3.11101C0.410543 4.26216 0 5.61553 0 7C0.0020073 8.8559 0.74015 10.6352 2.05247 11.9475C3.36479 13.2599 5.1441 13.998 7 14ZM7 2.91667C7.17306 2.91667 7.34223 2.96799 7.48612 3.06413C7.63002 3.16028 7.74217 3.29694 7.8084 3.45682C7.87462 3.61671 7.89195 3.79264 7.85819 3.96237C7.82443 4.13211 7.74109 4.28802 7.61872 4.41039C7.49635 4.53276 7.34044 4.6161 7.1707 4.64986C7.00097 4.68362 6.82504 4.66629 6.66515 4.60006C6.50527 4.53384 6.36861 4.42169 6.27246 4.27779C6.17632 4.1339 6.125 3.96473 6.125 3.79167C6.125 3.55961 6.21719 3.33705 6.38128 3.17295C6.54538 3.00886 6.76794 2.91667 7 2.91667ZM6.41667 5.83334H7C7.30942 5.83334 7.60617 5.95625 7.82496 6.17505C8.04375 6.39384 8.16667 6.69058 8.16667 7V10.5C8.16667 10.6547 8.10521 10.8031 7.99581 10.9125C7.88642 11.0219 7.73804 11.0833 7.58333 11.0833C7.42862 11.0833 7.28025 11.0219 7.17086 10.9125C7.06146 10.8031 7 10.6547 7 10.5V7H6.41667C6.26196 7 6.11358 6.93855 6.00419 6.82915C5.89479 6.71975 5.83333 6.57138 5.83333 6.41667C5.83333 6.26196 5.89479 6.11359 6.00419 6.00419C6.11358 5.8948 6.26196 5.83334 6.41667 5.83334Z" fill="#CC952C"/>
</g>
<defs>
<clipPath id="clip0_15814_102">
<rect width="14" height="14" fill="white"/>
</clipPath>
</defs>
</svg>
