<svg width="12" height="12" viewBox="0 0 12 12" fill="none" xmlns="http://www.w3.org/2000/svg">
<g clip-path="url(#clip0_15789_12023)">
<path d="M8.1035 3.8965C8.2985 4.0915 8.2985 4.4085 8.1035 4.6035L7.582 5.125L6.875 4.418L7.3965 3.8965C7.592 3.701 7.908 3.701 8.1035 3.8965ZM6.168 5.125L4 7.293V8H4.707L6.875 5.832L6.168 5.125ZM12 6C12 9.3085 9.3085 12 6 12C2.6915 12 0 9.3085 0 6C0 2.6915 2.6915 0 6 0C9.3085 0 12 2.6915 12 6ZM8.8105 3.1895C8.2255 2.6045 7.2745 2.6045 6.6895 3.1895L3 6.879V9H5.121L8.8105 5.3105C9.3955 4.7255 9.3955 3.7745 8.8105 3.1895Z" fill="#FAFBFC"/>
</g>
<defs>
<clipPath id="clip0_15789_12023">
<rect width="12" height="12" fill="white"/>
</clipPath>
</defs>
</svg>
