<svg width="512" height="512" viewBox="0 0 512 512" fill="none" xmlns="http://www.w3.org/2000/svg">
<path d="M256 211.843C298.978 211.843 333.818 177.003 333.818 134.025C333.818 91.0477 298.978 56.2075 256 56.2075C213.022 56.2075 178.182 91.0477 178.182 134.025C178.182 177.003 213.022 211.843 256 211.843Z" fill="url(#paint0_linear_7014_73255)"/>
<path d="M413.424 211.843C440.594 211.843 462.619 189.817 462.619 162.648C462.619 135.478 440.594 113.453 413.424 113.453C386.255 113.453 364.229 135.478 364.229 162.648C364.229 189.817 386.255 211.843 413.424 211.843Z" fill="url(#paint1_linear_7014_73255)"/>
<path d="M98.5757 211.843C125.745 211.843 147.771 189.817 147.771 162.648C147.771 135.478 125.745 113.453 98.5757 113.453C71.406 113.453 49.3806 135.478 49.3806 162.648C49.3806 189.817 71.406 211.843 98.5757 211.843Z" fill="url(#paint2_linear_7014_73255)"/>
<path d="M147.046 256.02C127.681 240.154 110.144 242.254 87.7528 242.254C54.2643 242.254 27.0192 269.338 27.0192 302.621V400.305C27.0192 414.759 38.817 426.512 53.3251 426.512C115.96 426.512 108.415 427.645 108.415 423.811C108.415 354.592 100.216 303.831 147.046 256.02Z" fill="url(#paint3_linear_7014_73255)"/>
<path d="M277.297 242.611C238.188 239.349 204.194 242.649 174.873 266.851C125.806 306.153 135.248 359.072 135.248 423.81C135.248 440.938 149.184 455.134 166.572 455.134C355.376 455.134 362.89 461.224 374.086 436.431C377.758 428.046 376.752 430.711 376.752 350.5C376.752 286.792 321.588 242.611 277.297 242.611Z" fill="url(#paint4_linear_7014_73255)"/>
<path d="M424.247 242.255C401.734 242.255 384.293 240.176 364.954 256.021C411.434 303.477 403.585 350.775 403.585 423.812C403.585 427.67 397.322 426.513 457.736 426.513C472.763 426.513 484.981 414.339 484.981 399.375V302.622C484.981 269.339 457.736 242.255 424.247 242.255Z" fill="url(#paint5_linear_7014_73255)"/>
<path d="M460.25 103.5C488.831 103.5 512 80.3307 512 51.75C512 23.1693 488.831 0 460.25 0C431.669 0 408.5 23.1693 408.5 51.75C408.5 80.3307 431.669 103.5 460.25 103.5Z" fill="#585858"/>
<path d="M478.249 76.5068C477.362 76.5079 476.484 76.3337 475.665 75.9943C474.846 75.6549 474.102 75.157 473.476 74.5292L437.476 38.5292C436.218 37.2619 435.514 35.5476 435.517 33.7619C435.52 31.9761 436.231 30.2644 437.494 29.0017C438.757 27.739 440.468 27.0282 442.254 27.0249C444.04 27.0217 445.754 27.7263 447.021 28.9844L483.021 64.9844C483.965 65.9284 484.608 67.131 484.868 68.4402C485.129 69.7495 484.995 71.1065 484.484 72.3398C483.973 73.573 483.108 74.6272 481.998 75.3689C480.889 76.1106 479.584 76.5066 478.249 76.5068Z" fill="white"/>
<path d="M442.249 76.5068C440.914 76.5066 439.609 76.1106 438.499 75.3689C437.39 74.6272 436.525 73.573 436.014 72.3398C435.503 71.1065 435.369 69.7495 435.63 68.4402C435.89 67.131 436.533 65.9284 437.476 64.9844L473.476 28.9844C474.744 27.7263 476.458 27.0217 478.244 27.0249C480.03 27.0282 481.741 27.739 483.004 29.0017C484.267 30.2644 484.978 31.9761 484.981 33.7619C484.984 35.5476 484.279 37.2619 483.021 38.5292L447.021 74.5292C446.395 75.157 445.652 75.6549 444.833 75.9943C444.013 76.3337 443.135 76.5079 442.249 76.5068Z" fill="white"/>
<defs>
<linearGradient id="paint0_linear_7014_73255" x1="256.01" y1="211.822" x2="256.01" y2="56.1397" gradientUnits="userSpaceOnUse">
<stop stop-color="#9B9B9B"/>
<stop offset="1" stop-color="#DDDDDD"/>
</linearGradient>
<linearGradient id="paint1_linear_7014_73255" x1="413.431" y1="211.83" x2="413.431" y2="113.41" gradientUnits="userSpaceOnUse">
<stop stop-color="#9B9B9B"/>
<stop offset="1" stop-color="#DDDDDD"/>
</linearGradient>
<linearGradient id="paint2_linear_7014_73255" x1="98.5821" y1="211.83" x2="98.5821" y2="113.41" gradientUnits="userSpaceOnUse">
<stop stop-color="#9B9B9B"/>
<stop offset="1" stop-color="#DDDDDD"/>
</linearGradient>
<linearGradient id="paint3_linear_7014_73255" x1="87.0405" y1="426.644" x2="87.0405" y2="242.082" gradientUnits="userSpaceOnUse">
<stop stop-color="#9B9B9B"/>
<stop offset="1" stop-color="#DDDDDD"/>
</linearGradient>
<linearGradient id="paint4_linear_7014_73255" x1="255.714" y1="455.766" x2="255.714" y2="241.462" gradientUnits="userSpaceOnUse">
<stop stop-color="#9B9B9B"/>
<stop offset="1" stop-color="#DDDDDD"/>
</linearGradient>
<linearGradient id="paint5_linear_7014_73255" x1="424.975" y1="426.651" x2="424.975" y2="242.085" gradientUnits="userSpaceOnUse">
<stop stop-color="#9B9B9B"/>
<stop offset="1" stop-color="#DDDDDD"/>
</linearGradient>
</defs>
</svg>
