<svg width="16" height="16" viewBox="0 0 16 16" fill="none" xmlns="http://www.w3.org/2000/svg">
<rect width="16" height="16" rx="8" fill="#F27A3A"/>
<g clip-path="url(#clip0_15789_12037)">
<path d="M11.1677 10.597L10.8105 6.09528C10.7883 5.80523 10.5429 5.57812 10.2521 5.57812H9.54642V6.6237C9.54642 6.75319 9.44161 6.858 9.31213 6.858C9.1828 6.858 9.07783 6.75319 9.07783 6.6237V5.57812H6.92234V6.6237C6.92234 6.75319 6.81738 6.858 6.68805 6.858C6.55856 6.858 6.45375 6.75319 6.45375 6.6237V5.57812H5.74806C5.45723 5.57812 5.21184 5.80523 5.18967 6.09466L4.8323 10.5976C4.80466 10.9583 4.92977 11.3172 5.17545 11.5824C5.42116 11.8476 5.76947 11.9999 6.13106 11.9999H9.86913C10.2307 11.9999 10.579 11.8476 10.8247 11.5824C11.0704 11.3172 11.1955 10.9583 11.1677 10.597ZM9.05566 8.3045L7.84389 9.51627C7.79813 9.56203 7.73814 9.58498 7.67817 9.58498C7.61819 9.58498 7.55822 9.56203 7.51245 9.51627L6.94453 8.94834C6.853 8.85681 6.853 8.70858 6.94453 8.61705C7.03606 8.52552 7.18445 8.52552 7.27583 8.61705L7.67819 9.01925L8.72438 7.97306C8.81575 7.88169 8.96414 7.88169 9.05567 7.97306C9.14719 8.06459 9.14719 8.21297 9.05566 8.3045Z" fill="white"/>
<path d="M8.00003 4C7.14736 4 6.4537 4.69381 6.4537 5.54648V5.57819H6.9223V5.54648C6.9223 4.95216 7.40572 4.46858 8.00005 4.46858C8.59438 4.46858 9.0778 4.95216 9.0778 5.54648V5.57819H9.54638V5.54648C9.54636 4.69381 8.8527 4 8.00003 4Z" fill="white"/>
</g>
<defs>
<clipPath id="clip0_15789_12037">
<rect width="8" height="8" fill="white" transform="translate(4 4)"/>
</clipPath>
</defs>
</svg>
