<svg width="51" height="51" viewBox="0 0 51 51" fill="none" xmlns="http://www.w3.org/2000/svg">
<path d="M8.17969 5.00195C4.72791 5.00195 1.92969 7.80017 1.92969 11.252V29.2207C1.92969 32.6725 4.72791 35.4707 8.17969 35.4707H23.1093C23.0526 34.9577 23.0234 34.4363 23.0234 33.9082C23.0234 33.3801 23.0526 32.8587 23.1093 32.3457H8.17969C6.4538 32.3457 5.05469 30.9466 5.05469 29.2207V15.9395H40.9922V20.3953C42.0956 20.7138 43.1434 21.1637 44.1172 21.727V11.252C44.1172 7.80017 41.319 5.00195 37.8672 5.00195H8.17969Z" fill="#A7A7A7"/>
<path d="M8.17969 27.6582C8.17969 26.7952 8.87922 26.0957 9.74219 26.0957H14.4297C15.2927 26.0957 15.9922 26.7952 15.9922 27.6582C15.9922 28.5212 15.2927 29.2207 14.4297 29.2207H9.74219C8.87922 29.2207 8.17969 28.5212 8.17969 27.6582Z" fill="#A7A7A7"/>
<path fill-rule="evenodd" clip-rule="evenodd" d="M37.0859 22.1895C43.558 22.1895 48.8047 27.4361 48.8047 33.9082C48.8047 40.3803 43.558 45.627 37.0859 45.627C30.6138 45.627 25.3672 40.3803 25.3672 33.9082C25.3672 27.4361 30.6138 22.1895 37.0859 22.1895ZM37.0859 28.4395C36.223 28.4395 35.5234 29.139 35.5234 30.002C35.5234 30.8649 36.223 31.5645 37.0859 31.5645C37.9489 31.5645 38.6484 30.8649 38.6484 30.002C38.6484 29.139 37.9489 28.4395 37.0859 28.4395ZM38.6484 39.377C38.6484 40.2399 37.9489 40.9395 37.0859 40.9395C36.223 40.9395 35.5234 40.2399 35.5234 39.377V33.9082C35.5234 33.0452 36.223 32.3457 37.0859 32.3457C37.9489 32.3457 38.6484 33.0452 38.6484 33.9082V39.377Z" fill="#A7A7A7"/>
</svg>
