<svg width="14" height="15" viewBox="0 0 14 15" fill="none" xmlns="http://www.w3.org/2000/svg">
<g clip-path="url(#clip0_14302_50034)">
<path d="M7.00097 7.98714C9.00099 7.98714 10.6359 6.35222 10.6359 4.35221C10.6359 2.3522 9.00099 0.717285 7.00097 0.717285C5.00096 0.717285 3.36608 2.3522 3.36608 4.35221C3.36608 6.35222 5.00099 7.98714 7.00097 7.98714Z" fill="#262D34" fill-opacity="0.7"/>
<path d="M13.2391 10.8918C13.1438 10.6537 13.0169 10.4315 12.874 10.2251C12.1438 9.14575 11.0169 8.43147 9.74704 8.25687C9.58833 8.24101 9.41372 8.27273 9.28673 8.36797C8.62006 8.86004 7.82642 9.114 7.001 9.114C6.17559 9.114 5.38195 8.86004 4.71528 8.36797C4.58828 8.27273 4.41368 8.22512 4.25496 8.25687C2.98512 8.43147 1.84227 9.14575 1.12799 10.2251C0.985134 10.4315 0.858138 10.6696 0.762921 10.8918C0.715312 10.9871 0.731171 11.0982 0.77878 11.1934C0.905776 11.4156 1.06449 11.6379 1.20735 11.8283C1.42956 12.1299 1.66766 12.3997 1.93752 12.6537C2.15973 12.8759 2.41369 13.0823 2.66769 13.2886C3.92164 14.2252 5.42959 14.7172 6.98514 14.7172C8.5407 14.7172 10.0486 14.2251 11.3026 13.2886C11.5566 13.0982 11.8105 12.8759 12.0328 12.6537C12.2867 12.3997 12.5407 12.1299 12.7629 11.8283C12.9217 11.622 13.0645 11.4156 13.1915 11.1934C13.2708 11.0982 13.2867 10.987 13.2391 10.8918Z" fill="#262D34" fill-opacity="0.7"/>
</g>
<defs>
<clipPath id="clip0_14302_50034">
<rect width="14" height="14" fill="white" transform="translate(0 0.717285)"/>
</clipPath>
</defs>
</svg>
