<svg width="14" height="15" viewBox="0 0 14 15" fill="none" xmlns="http://www.w3.org/2000/svg">
<g clip-path="url(#clip0_16760_140)">
<path d="M0 11.8965C0.00092625 12.6697 0.308514 13.4111 0.855295 13.9579C1.40208 14.5046 2.1434 14.8122 2.91667 14.8132H11.0833C11.8566 14.8122 12.5979 14.5046 13.1447 13.9579C13.6915 13.4111 13.9991 12.6697 14 11.8965V6.64648H0V11.8965ZM9.91667 9.27148C10.0897 9.27148 10.2589 9.3228 10.4028 9.41895C10.5467 9.51509 10.6588 9.65175 10.7251 9.81164C10.7913 9.97152 10.8086 10.1475 10.7749 10.3172C10.7411 10.4869 10.6578 10.6428 10.5354 10.7652C10.413 10.8876 10.2571 10.9709 10.0874 11.0047C9.91764 11.0384 9.7417 11.0211 9.58182 10.9549C9.42193 10.8887 9.28528 10.7765 9.18913 10.6326C9.09298 10.4887 9.04167 10.3195 9.04167 10.1465C9.04167 9.91442 9.13385 9.69186 9.29795 9.52777C9.46204 9.36367 9.6846 9.27148 9.91667 9.27148ZM7 9.27148C7.17306 9.27148 7.34223 9.3228 7.48612 9.41895C7.63002 9.51509 7.74217 9.65175 7.80839 9.81164C7.87462 9.97152 7.89195 10.1475 7.85819 10.3172C7.82442 10.4869 7.74109 10.6428 7.61872 10.7652C7.49635 10.8876 7.34044 10.9709 7.1707 11.0047C7.00097 11.0384 6.82504 11.0211 6.66515 10.9549C6.50527 10.8887 6.36861 10.7765 6.27246 10.6326C6.17632 10.4887 6.125 10.3195 6.125 10.1465C6.125 9.91442 6.21719 9.69186 6.38128 9.52777C6.54538 9.36367 6.76794 9.27148 7 9.27148ZM4.08333 9.27148C4.25639 9.27148 4.42556 9.3228 4.56946 9.41895C4.71335 9.51509 4.8255 9.65175 4.89173 9.81164C4.95795 9.97152 4.97528 10.1475 4.94152 10.3172C4.90776 10.4869 4.82442 10.6428 4.70205 10.7652C4.57968 10.8876 4.42377 10.9709 4.25404 11.0047C4.0843 11.0384 3.90837 11.0211 3.74849 10.9549C3.5886 10.8887 3.45194 10.7765 3.3558 10.6326C3.25965 10.4887 3.20833 10.3195 3.20833 10.1465C3.20833 9.91442 3.30052 9.69186 3.46461 9.52777C3.62871 9.36367 3.85127 9.27148 4.08333 9.27148Z" fill="#A7A7A7"/>
<path d="M11.0833 1.98112H10.5V1.39779C10.5 1.24308 10.4385 1.0947 10.3291 0.985308C10.2197 0.875911 10.0714 0.814453 9.91667 0.814453C9.76196 0.814453 9.61358 0.875911 9.50419 0.985308C9.39479 1.0947 9.33333 1.24308 9.33333 1.39779V1.98112H4.66667V1.39779C4.66667 1.24308 4.60521 1.0947 4.49581 0.985308C4.38642 0.875911 4.23804 0.814453 4.08333 0.814453C3.92862 0.814453 3.78025 0.875911 3.67085 0.985308C3.56146 1.0947 3.5 1.24308 3.5 1.39779V1.98112H2.91667C2.1434 1.98205 1.40208 2.28963 0.855295 2.83641C0.308514 3.3832 0.00092625 4.12452 0 4.89779L0 5.48112H14V4.89779C13.9991 4.12452 13.6915 3.3832 13.1447 2.83641C12.5979 2.28963 11.8566 1.98205 11.0833 1.98112Z" fill="#A7A7A7"/>
</g>
<defs>
<clipPath id="clip0_16760_140">
<rect width="14" height="14" fill="white" transform="translate(0 0.814453)"/>
</clipPath>
</defs>
</svg>
