<svg width="61" height="61" viewBox="0 0 61 61" fill="none" xmlns="http://www.w3.org/2000/svg">
<g clip-path="url(#clip0_16441_119184)">
<path d="M30.3672 54.3145C43.622 54.3145 54.3672 43.5693 54.3672 30.3145C54.3672 17.0596 43.622 6.31445 30.3672 6.31445C17.1124 6.31445 6.36719 17.0596 6.36719 30.3145C6.36719 43.5693 17.1124 54.3145 30.3672 54.3145Z" fill="url(#paint0_linear_16441_119184)"/>
<path d="M39.536 21.1416C39.2777 21.3981 39.1233 21.7411 39.1026 22.1045C39.0818 22.4679 39.1961 22.8261 39.4235 23.1104C41.0939 25.1995 41.9855 27.8046 41.9453 30.4791C41.8591 36.8541 36.5641 41.9954 30.1853 41.897C28.0226 41.8648 25.9122 41.2273 24.0935 40.0567C22.2747 38.886 20.8203 37.2291 19.8954 35.2739C18.9705 33.3187 18.6119 31.1435 18.8605 28.9949C19.109 26.8463 19.9547 24.8103 21.3016 23.1179C21.5306 22.8337 21.6468 22.475 21.6277 22.1105C21.6087 21.746 21.4559 21.4014 21.1985 21.1426C21.0517 20.9953 20.8754 20.8807 20.6812 20.8063C20.487 20.7319 20.2793 20.6993 20.0717 20.7107C19.8641 20.7221 19.6612 20.7773 19.4764 20.8725C19.2915 20.9678 19.1289 21.101 18.9991 21.2635C16.9445 23.836 15.8287 27.0322 15.836 30.3245C15.836 38.3307 22.3882 44.8613 30.3944 44.8463C33.1254 44.8413 35.7997 44.0668 38.1107 42.6116C40.4217 41.1565 42.2759 39.0795 43.4606 36.6188C44.6453 34.1582 45.1126 31.4135 44.809 28.6994C44.5053 25.9854 43.443 23.4118 41.7438 21.2738C41.6144 21.1099 41.4518 20.9751 41.2666 20.8784C41.0815 20.7817 40.878 20.7253 40.6695 20.7128C40.461 20.7003 40.2522 20.7321 40.0569 20.806C39.8615 20.8799 39.684 20.9943 39.536 21.1416Z" fill="white"/>
<path d="M31.7999 17.2588C31.7999 16.4439 31.1392 15.7832 30.3243 15.7832C29.5093 15.7832 28.8486 16.4439 28.8486 17.2588V27.9773C28.8486 28.7922 29.5093 29.4529 30.3243 29.4529C31.1392 29.4529 31.7999 28.7922 31.7999 27.9773V17.2588Z" fill="white"/>
</g>
<defs>
<linearGradient id="paint0_linear_16441_119184" x1="13.3966" y1="13.3438" x2="47.3378" y2="47.2851" gradientUnits="userSpaceOnUse">
<stop stop-color="#70F64A"/>
<stop offset="1" stop-color="#19B931"/>
</linearGradient>
<clipPath id="clip0_16441_119184">
<rect width="48" height="48" fill="white" transform="translate(6.36719 6.31445)"/>
</clipPath>
</defs>
</svg>
