<svg width="16" height="16" viewBox="0 0 16 16" fill="none" xmlns="http://www.w3.org/2000/svg">
<rect width="16" height="16" rx="8" fill="#2196F3"/>
<g clip-path="url(#clip0_15789_12029)">
<path fill-rule="evenodd" clip-rule="evenodd" d="M7.4263 9.97534C7.35229 9.95556 7.30833 9.87954 7.32811 9.80553C7.34788 9.73152 7.4239 9.68756 7.49792 9.70733C7.84861 9.80129 8.19614 9.91419 8.55168 9.9877C8.73462 10.0101 8.88581 9.95164 8.93654 9.76232C8.98269 9.59011 8.87415 9.42763 8.71139 9.3714C8.22503 9.2824 7.75272 9.11168 7.38137 8.97742C6.84161 8.78228 6.69632 8.73744 6.16429 9.04548L5.16524 9.6239L5.9726 11.0505L6.08802 10.9838C6.12101 10.9649 6.15854 10.961 6.19262 10.9701L8.32581 11.5413C8.59594 11.6137 8.85172 11.5809 9.09057 11.4339C10.0708 10.8304 11.0512 10.2271 12.0314 9.62357C12.1828 9.53034 12.2028 9.27657 12.1131 9.13195C11.9163 8.81489 11.3748 9.07607 11.1477 9.20831L9.52717 10.1522C9.27257 10.3004 9.00291 10.3411 8.71361 10.2948C8.26811 10.2199 7.85887 10.0912 7.4263 9.97534ZM9.11693 5.06166L9.65272 5.371L7.99673 6.32708V7.04997C7.99673 7.06911 8.00621 7.08551 8.02278 7.09508L8.39885 7.31221C8.43368 7.33234 8.47698 7.30734 8.47698 7.26711V6.60435L10.133 5.64826L10.6688 5.9576C10.7019 5.97673 10.7208 6.00956 10.7208 6.0478V7.8397C10.7208 7.87794 10.7019 7.91077 10.6688 7.9299L9.11694 8.82586C9.08382 8.84499 9.0459 8.84499 9.01278 8.82586L7.46095 7.9299C7.42783 7.91077 7.40887 7.87794 7.40887 7.8397V6.0478C7.40887 6.00956 7.42783 5.97673 7.46095 5.9576L9.01278 5.06166C9.04588 5.04253 9.0838 5.04253 9.11693 5.06166ZM10.1869 4.27581C10.2411 4.22157 10.3291 4.22157 10.3833 4.27581C10.4375 4.33004 10.4375 4.41798 10.3833 4.4722L9.9743 4.88117C9.92007 4.93541 9.83213 4.93541 9.77792 4.88117C9.72368 4.82694 9.72368 4.739 9.77792 4.68478L10.1869 4.27581ZM7.7464 4.4722C7.69217 4.41796 7.69217 4.33003 7.7464 4.27581C7.80064 4.22157 7.88857 4.22157 7.94279 4.27581L8.35177 4.68478C8.406 4.73902 8.406 4.82695 8.35177 4.88117C8.29753 4.93541 8.2096 4.93541 8.15538 4.88117L7.7464 4.4722ZM8.92595 3.90268C8.92595 3.82598 8.98814 3.76379 9.06484 3.76379C9.14154 3.76379 9.20373 3.82598 9.20373 3.90268V4.48105C9.20373 4.55775 9.14154 4.61994 9.06484 4.61994C8.98814 4.61994 8.92595 4.55775 8.92595 4.48105V3.90268ZM4.70149 9.36841L5.98989 11.6449C6.05219 11.755 6.01309 11.896 5.90302 11.9583L5.46477 12.2063C5.3547 12.2686 5.21366 12.2296 5.15137 12.1195L3.86298 9.84298C3.80069 9.73291 3.83977 9.59187 3.94986 9.52957L4.38809 9.28155C4.49816 9.21924 4.6392 9.25834 4.70149 9.36841ZM4.42347 9.74043C4.33797 9.75293 4.27878 9.83237 4.29128 9.91787C4.30378 10.0034 4.38323 10.0626 4.46875 10.0501C4.55425 10.0376 4.61342 9.95812 4.60094 9.87261C4.58842 9.78709 4.50897 9.72793 4.42347 9.74043Z" fill="white"/>
</g>
<defs>
<clipPath id="clip0_15789_12029">
<rect width="8.88889" height="8.88889" fill="white" transform="translate(3.55547 3.55542)"/>
</clipPath>
</defs>
</svg>
