<svg width="16" height="16" viewBox="0 0 16 16" fill="none" xmlns="http://www.w3.org/2000/svg">
<rect width="16" height="16" rx="8" fill="#528C41"/>
<g clip-path="url(#clip0_15789_12050)">
<path d="M7.43995 6.44994L8.0001 6.2177L8.56025 6.44994C8.6353 6.48092 8.72149 6.47113 8.78775 6.42306C8.85369 6.37508 8.88994 6.29617 8.88353 6.21491L8.83588 5.61042L9.22978 5.14925C9.28275 5.08736 9.29963 5.00219 9.27447 4.92467C9.24931 4.847 9.18556 4.78808 9.10619 4.76917L8.51666 4.62758L8.19994 4.11046C8.11563 3.96317 7.88455 3.96319 7.80025 4.11046L7.48353 4.62758L6.894 4.76917C6.81463 4.78808 6.75088 4.847 6.72572 4.92467C6.70056 5.00219 6.71744 5.08736 6.77041 5.14925L7.16431 5.61042L7.11666 6.21491C7.11025 6.29617 7.1465 6.3751 7.21244 6.42306C7.27855 6.47088 7.36464 6.48119 7.43995 6.44994Z" fill="white"/>
<path d="M11.9885 5.84676C11.9634 5.76909 11.8996 5.71017 11.8202 5.69126L11.2307 5.54967L10.914 5.03254C10.8713 4.963 10.7957 4.92065 10.7141 4.92065C10.6326 4.92065 10.557 4.96301 10.5143 5.03254L10.1976 5.54967L9.60805 5.69126C9.52868 5.71017 9.46493 5.76909 9.43977 5.84676C9.41461 5.92428 9.43149 6.00945 9.48446 6.07134L9.87836 6.53251L9.83071 7.137C9.8243 7.21826 9.86055 7.29719 9.92649 7.34515C9.99258 7.39298 10.0787 7.4033 10.154 7.37203L10.7141 7.13979L11.2743 7.37203C11.3493 7.40301 11.4355 7.39322 11.5018 7.34515C11.5677 7.29717 11.604 7.21826 11.5976 7.137L11.5499 6.53251L11.9438 6.07134C11.9968 6.00945 12.0137 5.92428 11.9885 5.84676Z" fill="white"/>
<path d="M5.93568 7.38984C5.98443 7.38984 6.03271 7.37469 6.07349 7.34515C6.13943 7.29717 6.17568 7.21826 6.16927 7.137L6.12161 6.53251L6.51552 6.07134C6.56849 6.00945 6.58536 5.92428 6.56021 5.84676C6.53505 5.76909 6.4713 5.71017 6.39193 5.69126L5.80239 5.54967L5.48568 5.03254C5.44302 4.963 5.36739 4.92065 5.28583 4.92065C5.20427 4.92065 5.12864 4.96301 5.08599 5.03254L4.76927 5.54967L4.17974 5.69126C4.10036 5.71017 4.03661 5.76909 4.01146 5.84676C3.9863 5.92428 4.00318 6.00945 4.05614 6.07134L4.45005 6.53251L4.40239 7.137C4.39599 7.21826 4.43224 7.29719 4.49818 7.34515C4.56427 7.39298 4.65036 7.4033 4.72568 7.37203L5.28583 7.13979L5.84599 7.37203C5.87489 7.3839 5.90536 7.38984 5.93568 7.38984Z" fill="white"/>
<path d="M10.759 9.6377L10.4817 11.2272C10.412 11.6252 10.0665 11.9155 9.66259 11.9155H8.06306C7.95134 11.9155 7.84181 11.8932 7.7404 11.8514C7.639 11.8093 7.54572 11.7477 7.46681 11.6686C7.46197 11.6638 7.45697 11.6589 7.45197 11.6541V9.01379L7.46259 9.01004C7.68806 8.92911 7.86384 8.74848 7.93822 8.52067L8.07806 8.07317L8.2665 7.4702C8.32197 7.30067 8.50415 7.20832 8.67384 7.26379C8.98447 7.36504 9.18197 7.65379 9.18197 7.96364C9.18197 8.03957 9.17009 8.11676 9.14509 8.1927L8.93509 8.88176H10.1237C10.5243 8.88176 10.8281 9.24317 10.759 9.6377Z" fill="white"/>
<path d="M6.75017 12.0001H5.66525C5.53655 12.0001 5.43222 11.8957 5.43222 11.767V8.95727C5.43222 8.82857 5.53655 8.72424 5.66525 8.72424H6.75017C6.87888 8.72424 6.9832 8.82857 6.9832 8.95727V11.767C6.9832 11.8957 6.87888 12.0001 6.75017 12.0001Z" fill="white"/>
</g>
<defs>
<clipPath id="clip0_15789_12050">
<rect width="8" height="8" fill="white" transform="translate(4 4)"/>
</clipPath>
</defs>
</svg>
