<svg width="15" height="15" viewBox="0 0 15 15" fill="none" xmlns="http://www.w3.org/2000/svg">
<g clip-path="url(#clip0_15906_47)">
<path d="M10 14.5712C9.2175 14.8487 8.37625 15 7.5 15C6.62375 15 5.7825 14.8487 5 14.5712V13.125C5 11.7463 6.12125 10.625 7.5 10.625C8.87875 10.625 10 11.7463 10 13.125V14.5712ZM7.5 4.375C6.81063 4.375 6.25 4.93563 6.25 5.625C6.25 6.31437 6.81063 6.875 7.5 6.875C8.18937 6.875 8.75 6.31437 8.75 5.625C8.75 4.93563 8.18937 4.375 7.5 4.375ZM15 7.5C15 10.2706 13.49 12.6944 11.25 13.9931V13.125C11.25 11.0569 9.56812 9.375 7.5 9.375C5.43188 9.375 3.75 11.0569 3.75 13.125V13.9931C1.51 12.6944 0 10.2706 0 7.5C0 3.36437 3.36437 0 7.5 0C11.6356 0 15 3.36437 15 7.5ZM10 5.625C10 4.24625 8.87875 3.125 7.5 3.125C6.12125 3.125 5 4.24625 5 5.625C5 7.00375 6.12125 8.125 7.5 8.125C8.87875 8.125 10 7.00375 10 5.625Z" fill="#656566"/>
</g>
<defs>
<clipPath id="clip0_15906_47">
<rect width="15" height="15" fill="white"/>
</clipPath>
</defs>
</svg>
