<svg width="15" height="15" viewBox="0 0 15 15" fill="none" xmlns="http://www.w3.org/2000/svg">
<g clip-path="url(#clip0_15906_114)">
<path d="M1.18973 6.18108C1.38981 5.45192 1.88156 4.83067 2.56348 4.47483L3.1579 4.22108C3.27165 5.19642 3.70623 6.10117 4.41965 6.814L5.4889 7.85992C6.02673 8.3855 6.74073 8.67542 7.49965 8.67542C8.25856 8.67542 8.97315 8.3855 9.51098 7.85992L10.5931 6.80117C11.3001 6.09475 11.7329 5.18767 11.8443 4.20825C11.8443 4.20825 12.4154 4.44625 12.4271 4.4515C13.2589 4.86625 13.8195 5.66367 13.928 6.58533L14.0691 7.78292L6.70923 11.1919L1.18973 6.18108ZM14.2115 9.00325L7.64606 12.0442L10.3492 14.4994H11.7761C12.5577 14.4994 13.3044 14.1646 13.8236 13.5801C14.3433 12.9962 14.5889 12.2157 14.4979 11.4387L14.2115 9.00325ZM0.990813 7.57583L0.536396 11.4387C0.444813 12.2151 0.690396 12.9962 1.21015 13.5801C1.7299 14.1646 2.47598 14.4994 3.25765 14.4994H8.61498L0.990813 7.57583ZM10.708 3.70775C10.708 4.56525 10.3743 5.37083 9.76823 5.97633L8.6949 7.02692C8.36531 7.3495 7.93248 7.50992 7.49965 7.50992C7.06681 7.50992 6.63456 7.3495 6.30498 7.02692L5.23573 5.981C4.62498 5.37083 4.29131 4.56467 4.29131 3.70833C4.29131 2.852 4.62498 2.04525 5.23106 1.43975C5.83715 0.833667 6.64273 0.5 7.49965 0.5C8.35656 0.5 9.16215 0.833667 9.76823 1.43975C10.3743 2.04583 10.708 2.85083 10.708 3.70775ZM8.37465 3.70425C8.37465 3.22125 7.98265 2.82925 7.49965 2.82925C7.01665 2.82925 6.62465 3.22125 6.62465 3.70425C6.62465 4.18725 7.01665 4.57925 7.49965 4.57925C7.98265 4.57925 8.37465 4.18725 8.37465 3.70425Z" fill="#A7A7A7"/>
</g>
<defs>
<clipPath id="clip0_15906_114">
<rect width="14" height="14" fill="white" transform="translate(0.5 0.5)"/>
</clipPath>
</defs>
</svg>
