<svg width="20" height="20" viewBox="0 0 20 20" fill="none" xmlns="http://www.w3.org/2000/svg">
<rect width="20" height="20" rx="3" transform="matrix(0 1 1 0 0 0)" fill="#1455AC"/>
<g clip-path="url(#clip0_16441_120815)">
<path d="M10.3233 6.83041L12.2546 8.54638C13.0168 9.22451 13.3984 9.56333 13.3984 9.99985C13.3984 10.4369 13.0168 10.7757 12.2546 11.4533L10.3233 13.1693C9.97524 13.479 9.80121 13.634 9.65781 13.5694C9.5144 13.5047 9.5144 13.2724 9.5144 12.8062V11.6667C7.7644 11.6667 5.86857 12.4999 5.1394 13.8887C5.1394 9.44472 7.73184 8.33347 9.5144 8.33347V7.19353C9.5144 6.72784 9.5144 6.49499 9.65781 6.43034C9.80121 6.36617 9.97524 6.52076 10.3238 6.83041H10.3233Z" stroke="white" stroke-width="0.885417" stroke-linecap="round" stroke-linejoin="round"/>
<path opacity="0.5" d="M11.7214 6.35449L14.257 8.70921C14.453 8.89122 14.6082 9.11267 14.7124 9.35898C14.8167 9.60529 14.8676 9.87088 14.8618 10.1383C14.856 10.4057 14.7937 10.6688 14.6789 10.9104C14.5641 11.152 14.3994 11.3665 14.1957 11.5398L11.7214 13.6462" stroke="white" stroke-width="0.885417" stroke-linecap="round"/>
</g>
<defs>
<clipPath id="clip0_16441_120815">
<rect width="11.6667" height="11.6667" fill="white" transform="translate(4.16663 4.16699)"/>
</clipPath>
</defs>
</svg>
