<svg width="26" height="27" viewBox="0 0 26 27" fill="none" xmlns="http://www.w3.org/2000/svg">
<rect y="0.734375" width="26" height="26" rx="3.78788" fill="#229917"/>
<path d="M11.1622 17.059C12.1873 18.0841 13.8493 18.0841 14.8744 17.0591L14.8744 17.059L16.748 15.1854C17.0956 14.8497 17.1052 14.2958 16.7695 13.9482C16.4338 13.6006 15.8799 13.591 15.5323 13.9267C15.525 13.9337 15.5178 13.9409 15.5108 13.9482L13.8874 15.571L13.874 7.60935C13.874 7.12612 13.4823 6.73438 12.999 6.73438C12.5158 6.73438 12.1241 7.12612 12.1241 7.60935L12.1363 15.5582L10.5258 13.9476C10.1782 13.6119 9.6243 13.6215 9.28858 13.9691C8.9611 14.3082 8.9611 14.8458 9.28858 15.1848L11.1622 17.059Z" fill="white"/>
<path d="M19.1246 15.1934C18.6413 15.1934 18.2496 15.5851 18.2496 16.0683V18.7463C18.2493 18.8779 18.1426 18.9846 18.011 18.9849H7.98851C7.85688 18.9846 7.75024 18.8779 7.74994 18.7463V16.0683C7.74994 15.5851 7.3582 15.1934 6.87497 15.1934C6.39174 15.1934 6 15.5851 6 16.0683V18.7463C6.00129 19.844 6.89083 20.7336 7.98851 20.7348H18.011C19.1087 20.7336 19.9982 19.844 19.9995 18.7463V16.0684C19.9995 15.5851 19.6078 15.1934 19.1246 15.1934Z" fill="white"/>
</svg>
