<svg width="40" height="41" viewBox="0 0 40 41" fill="none" xmlns="http://www.w3.org/2000/svg">
<path d="M26.6673 26.9811L20.0007 20.3145L13.334 26.9811" stroke="#A7A7A7" stroke-width="2" stroke-linecap="round" stroke-linejoin="round"/>
<path d="M20 20.3145V35.3145" stroke="#A7A7A7" stroke-width="2" stroke-linecap="round" stroke-linejoin="round"/>
<path d="M33.9838 30.9643C35.6093 30.0781 36.8935 28.6757 37.6335 26.9786C38.3736 25.2815 38.5274 23.3863 38.0708 21.5921C37.6141 19.7978 36.5729 18.2068 35.1115 17.07C33.6502 15.9332 31.8519 15.3155 30.0004 15.3143H27.9004C27.3959 13.363 26.4557 11.5515 25.1503 10.0159C23.845 8.48035 22.2085 7.26068 20.3639 6.44861C18.5193 5.63654 16.5147 5.25319 14.5006 5.3274C12.4866 5.40161 10.5155 5.93143 8.73572 6.87704C6.9559 7.82265 5.41361 9.15944 4.22479 10.7869C3.03598 12.4144 2.23157 14.2902 1.87206 16.2733C1.51254 18.2564 1.60726 20.2951 2.14911 22.2364C2.69096 24.1776 3.66583 25.9707 5.00042 27.4809" stroke="#A7A7A7" stroke-width="2" stroke-linecap="round" stroke-linejoin="round"/>
<path d="M26.6673 26.9811L20.0007 20.3145L13.334 26.9811" stroke="#A7A7A7" stroke-width="2" stroke-linecap="round" stroke-linejoin="round"/>
</svg>
