<svg width="16" height="17" viewBox="0 0 16 17" fill="none" xmlns="http://www.w3.org/2000/svg">
<rect y="0.314453" width="16" height="16" rx="8" fill="#9845B4"/>
<g clip-path="url(#clip0_16485_12576)">
<path d="M9.55566 5.78727C9.55581 5.89573 9.59897 5.9997 9.67568 6.07638C9.75239 6.15305 9.85638 6.19617 9.96484 6.19627H11.1506C11.0875 5.99737 10.9782 5.81622 10.8317 5.66762L10.0843 4.92023C9.93537 4.77444 9.7543 4.66563 9.55566 4.60254V5.78727Z" fill="white"/>
<path d="M9.9648 6.86312C9.67947 6.86312 9.40583 6.74977 9.20407 6.54801C9.0023 6.34625 8.88896 6.0726 8.88896 5.78727V4.52979H6.22229C5.95707 4.52979 5.70272 4.63514 5.51518 4.82268C5.32765 5.01021 5.22229 5.26457 5.22229 5.52979V10.8631C5.22229 11.1283 5.32765 11.3827 5.51518 11.5702C5.70272 11.7578 5.95707 11.8631 6.22229 11.8631H10.2223C10.4875 11.8631 10.7419 11.7578 10.9294 11.5702C11.1169 11.3827 11.2223 11.1283 11.2223 10.8631V6.86312H9.9648ZM6.34436 5.65182C6.40263 5.59355 6.47688 5.55386 6.5577 5.53779C6.63853 5.52171 6.7223 5.52997 6.79844 5.5615C6.87457 5.59304 6.93964 5.64645 6.98543 5.71497C7.03121 5.78349 7.05565 5.86404 7.05565 5.94645C7.05565 6.02886 7.03121 6.10942 6.98543 6.17794C6.93964 6.24646 6.87457 6.29986 6.79844 6.3314C6.7223 6.36294 6.63853 6.37119 6.5577 6.35511C6.47688 6.33904 6.40263 6.29936 6.34436 6.24109C6.30566 6.2024 6.27496 6.15647 6.25402 6.10591C6.23307 6.05536 6.22229 6.00117 6.22229 5.94645C6.22229 5.89173 6.23307 5.83755 6.25402 5.78699C6.27496 5.73644 6.30566 5.6905 6.34436 5.65182ZM6.15329 7.29412L7.81996 5.62745C7.88265 5.56588 7.96713 5.53156 8.055 5.53196C8.14287 5.53236 8.22703 5.56744 8.28917 5.62958C8.3513 5.69171 8.38638 5.77587 8.38678 5.86374C8.38718 5.95162 8.35286 6.03609 8.29129 6.09879L6.62462 7.76545C6.56193 7.82702 6.47745 7.86134 6.38958 7.86094C6.30171 7.86055 6.21755 7.82546 6.15541 7.76333C6.09328 7.70119 6.0582 7.61703 6.0578 7.52916C6.0574 7.44129 6.09172 7.35681 6.15329 7.29412ZM8.10023 7.7411C8.04196 7.79937 7.96771 7.83905 7.88689 7.85512C7.80606 7.8712 7.72229 7.86295 7.64615 7.83141C7.57002 7.79987 7.50495 7.74647 7.45916 7.67795C7.41338 7.60943 7.38894 7.52887 7.38894 7.44646C7.38894 7.36405 7.41338 7.2835 7.45916 7.21498C7.50495 7.14646 7.57002 7.09305 7.64615 7.06151C7.72229 7.02998 7.80606 7.02172 7.88689 7.0378C7.96771 7.05387 8.04196 7.09356 8.10023 7.15183C8.13893 7.19051 8.16962 7.23645 8.19057 7.287C8.21151 7.33756 8.22229 7.39174 8.22229 7.44646C8.22228 7.50118 8.2115 7.55536 8.19056 7.60592C8.16962 7.65647 8.13893 7.70241 8.10023 7.7411ZM9.85865 10.8631H6.58593C6.53971 10.8671 6.49317 10.8615 6.44924 10.8466C6.40532 10.8317 6.36498 10.8078 6.33079 10.7764C6.29659 10.7451 6.26929 10.707 6.25061 10.6645C6.23193 10.6221 6.22228 10.5762 6.22228 10.5298C6.22228 10.4834 6.23193 10.4375 6.25061 10.3951C6.26929 10.3526 6.29659 10.3145 6.33079 10.2831C6.36498 10.2518 6.40532 10.2279 6.44924 10.213C6.49317 10.1981 6.53971 10.1924 6.58593 10.1965H9.85865C9.90487 10.1924 9.95141 10.1981 9.99534 10.213C10.0393 10.2279 10.0796 10.2518 10.1138 10.2831C10.148 10.3145 10.1753 10.3526 10.194 10.3951C10.2127 10.4375 10.2223 10.4834 10.2223 10.5298C10.2223 10.5762 10.2127 10.6221 10.194 10.6645C10.1753 10.707 10.148 10.7451 10.1138 10.7764C10.0796 10.8078 10.0393 10.8317 9.99534 10.8466C9.95141 10.8615 9.90487 10.8671 9.85865 10.8631ZM9.85865 9.36312H6.58593C6.53971 9.36715 6.49317 9.36152 6.44924 9.3466C6.40532 9.33168 6.36498 9.30778 6.33079 9.27644C6.29659 9.24509 6.26929 9.20698 6.25061 9.16452C6.23193 9.12206 6.22228 9.07617 6.22228 9.02979C6.22228 8.9834 6.23193 8.93752 6.25061 8.89505C6.26929 8.85259 6.29659 8.81448 6.33079 8.78313C6.36498 8.75179 6.40532 8.7279 6.44924 8.71297C6.49317 8.69805 6.53971 8.69243 6.58593 8.69645H9.85865C9.90487 8.69243 9.95141 8.69805 9.99534 8.71297C10.0393 8.7279 10.0796 8.75179 10.1138 8.78313C10.148 8.81448 10.1753 8.85259 10.194 8.89505C10.2127 8.93752 10.2223 8.9834 10.2223 9.02979C10.2223 9.07617 10.2127 9.12206 10.194 9.16452C10.1753 9.20698 10.148 9.24509 10.1138 9.27644C10.0796 9.30778 10.0393 9.33168 9.99534 9.3466C9.95141 9.36152 9.90487 9.36715 9.85865 9.36312Z" fill="white"/>
</g>
<defs>
<clipPath id="clip0_16485_12576">
<rect width="7.55556" height="8" fill="white" transform="translate(4.22223 4.19629)"/>
</clipPath>
</defs>
</svg>
