<svg width="17" height="17" viewBox="0 0 17 17" fill="none" xmlns="http://www.w3.org/2000/svg">
<g clip-path="url(#clip0_16054_3098)">
<path d="M11.6997 2.98112V1.64779C11.6997 1.29416 11.5592 0.955026 11.3092 0.704977C11.0591 0.454929 10.72 0.314453 10.3664 0.314453L6.36637 0.314453C6.01275 0.314453 5.67361 0.454929 5.42356 0.704977C5.17352 0.955026 5.03304 1.29416 5.03304 1.64779V2.98112H1.69971V4.31445H3.03304V14.3145C3.03304 14.8449 3.24375 15.3536 3.61883 15.7287C3.9939 16.1037 4.50261 16.3145 5.03304 16.3145H11.6997C12.2301 16.3145 12.7388 16.1037 13.1139 15.7287C13.489 15.3536 13.6997 14.8449 13.6997 14.3145V4.31445H15.033V2.98112H11.6997ZM7.69971 11.6478H6.36637V7.64779H7.69971V11.6478ZM10.3664 11.6478H9.03304V7.64779H10.3664V11.6478ZM10.3664 2.98112H6.36637V1.64779H10.3664V2.98112Z" fill="#FF4040"/>
</g>
<defs>
<clipPath id="clip0_16054_3098">
<rect width="16" height="16" fill="white" transform="translate(0.367188 0.314453)"/>
</clipPath>
</defs>
</svg>
