<svg width="24" height="25" viewBox="0 0 24 25" fill="none" xmlns="http://www.w3.org/2000/svg">
<g clip-path="url(#clip0_15965_3079)">
<path d="M20.4375 4.00195H3.5625C2.39941 4.00195 1.45312 4.94824 1.45312 6.11133V22.6113C1.45312 23.7744 2.39941 24.7207 3.5625 24.7207H20.4375C21.6006 24.7207 22.5469 23.7744 22.5469 22.6113V6.11133C22.5469 4.94824 21.6006 4.00195 20.4375 4.00195Z" fill="#F93057"/>
<path d="M20.4375 4.00195H12V24.7207H20.4375C21.6006 24.7207 22.5469 23.7744 22.5469 22.6113V6.11133C22.5469 4.94824 21.6006 4.00195 20.4375 4.00195Z" fill="#E22753"/>
<path d="M19.0312 4.00195H4.96875C4.58038 4.00195 4.26562 4.31671 4.26562 4.70508V21.2051C4.26562 21.5934 4.58038 21.9082 4.96875 21.9082H19.0312C19.4196 21.9082 19.7344 21.5934 19.7344 21.2051V4.70508C19.7344 4.31671 19.4196 4.00195 19.0312 4.00195Z" fill="#E1EBF0"/>
<path d="M19.0312 4.00195H12V21.9082H19.0312C19.4196 21.9082 19.7344 21.5934 19.7344 21.2051V4.70508C19.7344 4.31671 19.4196 4.00195 19.0312 4.00195Z" fill="#CDE1E6"/>
<path d="M9.9375 17.6426H7.78125C7.39288 17.6426 7.07812 17.3278 7.07812 16.9395C7.07812 16.5511 7.39288 16.2363 7.78125 16.2363H9.9375C10.3259 16.2363 10.6406 16.5511 10.6406 16.9395C10.6406 17.3278 10.3259 17.6426 9.9375 17.6426Z" fill="#006EFF"/>
<path d="M9.9375 12.252H7.78125C7.39288 12.252 7.07812 11.9372 7.07812 11.5488C7.07812 11.1605 7.39288 10.8457 7.78125 10.8457H9.9375C10.3259 10.8457 10.6406 11.1605 10.6406 11.5488C10.6406 11.9372 10.3259 12.252 9.9375 12.252Z" fill="#006EFF"/>
<path d="M14.1094 12.252C13.9294 12.252 13.7494 12.1833 13.6122 12.046L12.4404 10.8741C12.1657 10.5996 12.1657 10.1543 12.4404 9.87982C12.7148 9.60516 13.1602 9.60516 13.4346 9.87982L14.1094 10.5544L15.7216 8.94232C15.9961 8.66766 16.4414 8.66766 16.7159 8.94232C16.9905 9.2168 16.9905 9.66193 16.7159 9.93658L14.6065 12.046C14.4694 12.1833 14.2894 12.252 14.1094 12.252Z" fill="#005ADC"/>
<path d="M14.1094 17.6426C13.9294 17.6426 13.7494 17.5739 13.6122 17.4366L12.4404 16.2647C12.1657 15.9902 12.1657 15.5449 12.4404 15.2704C12.7148 14.9958 13.1602 14.9958 13.4346 15.2704L14.1094 15.945L15.7216 14.3329C15.9961 14.0583 16.4414 14.0583 16.7159 14.3329C16.9905 14.6074 16.9905 15.0526 16.7159 15.3272L14.6065 17.4366C14.4694 17.5739 14.2894 17.6426 14.1094 17.6426Z" fill="#005ADC"/>
<path d="M16.4531 6.81445H7.54688C7.15851 6.81445 6.84375 6.49969 6.84375 6.11133V3.29883C6.84375 2.91046 7.15851 2.5957 7.54688 2.5957H9.51929C9.82617 1.51465 10.8221 0.720703 12 0.720703C13.1779 0.720703 14.1738 1.51465 14.4807 2.5957H16.4531C16.8415 2.5957 17.1562 2.91046 17.1562 3.29883V6.11133C17.1562 6.49969 16.8415 6.81445 16.4531 6.81445Z" fill="#FFB533"/>
<path d="M16.4531 6.81445C16.8415 6.81445 17.1562 6.49969 17.1562 6.11133V3.29883C17.1562 2.91046 16.8415 2.5957 16.4531 2.5957H14.4807C14.1738 1.51465 13.1779 0.720703 12 0.720703V6.81445H16.4531Z" fill="#FFA300"/>
</g>
<defs>
<clipPath id="clip0_15965_3079">
<rect width="24" height="24" fill="white" transform="translate(0 0.720703)"/>
</clipPath>
</defs>
</svg>
