<svg width="16" height="15" viewBox="0 0 16 15" fill="none" xmlns="http://www.w3.org/2000/svg">
<g clip-path="url(#clip0_15997_289)">
<path d="M12.2422 0.314453H3.49219C1.76719 0.314453 0.367188 1.62112 0.367188 3.23112V11.3978C0.367188 13.0078 1.76719 14.3145 3.49219 14.3145H12.2422C13.9672 14.3145 15.3672 13.0078 15.3672 11.3978V3.23112C15.3672 1.62112 13.9672 0.314453 12.2422 0.314453ZM4.11719 3.23112H7.86719C8.21094 3.23112 8.49219 3.49362 8.49219 3.81445C8.49219 4.13529 8.21094 4.39779 7.86719 4.39779H4.11719C3.77344 4.39779 3.49219 4.13529 3.49219 3.81445C3.49219 3.49362 3.77344 3.23112 4.11719 3.23112ZM4.11719 5.56445H9.74219C10.0859 5.56445 10.3672 5.82695 10.3672 6.14779C10.3672 6.46862 10.0859 6.73112 9.74219 6.73112H4.11719C3.77344 6.73112 3.49219 6.46862 3.49219 6.14779C3.49219 5.82695 3.77344 5.56445 4.11719 5.56445ZM5.99219 11.3978H4.11719C3.77344 11.3978 3.49219 11.1353 3.49219 10.8145C3.49219 10.4936 3.77344 10.2311 4.11719 10.2311H5.99219C6.33594 10.2311 6.61719 10.4936 6.61719 10.8145C6.61719 11.1353 6.33594 11.3978 5.99219 11.3978ZM11.6172 9.06445H4.11719C3.77344 9.06445 3.49219 8.80195 3.49219 8.48112C3.49219 8.16029 3.77344 7.89779 4.11719 7.89779H11.6172C11.9609 7.89779 12.2422 8.16029 12.2422 8.48112C12.2422 8.80195 11.9609 9.06445 11.6172 9.06445Z" fill="#A7A7A7"/>
</g>
<defs>
<clipPath id="clip0_15997_289">
<rect width="15" height="14" fill="white" transform="translate(0.367188 0.314453)"/>
</clipPath>
</defs>
</svg>
